<svg xmlns="http://www.w3.org/2000/svg" viewBox="0 0 128 128" width="128" height="128">
  <defs>
    <linearGradient id="mainGradient" x1="0%" y1="0%" x2="100%" y2="100%">
      <stop offset="0%" style="stop-color:#667eea;stop-opacity:1" />
      <stop offset="100%" style="stop-color:#764ba2;stop-opacity:1" />
    </linearGradient>
    <linearGradient id="accentGradient" x1="0%" y1="0%" x2="100%" y2="100%">
      <stop offset="0%" style="stop-color:#f093fb;stop-opacity:1" />
      <stop offset="100%" style="stop-color:#f5576c;stop-opacity:1" />
    </linearGradient>
    <linearGradient id="aiGradient" x1="0%" y1="0%" x2="100%" y2="100%">
      <stop offset="0%" style="stop-color:#4facfe;stop-opacity:1" />
      <stop offset="100%" style="stop-color:#00f2fe;stop-opacity:1" />
    </linearGradient>
    <filter id="dropshadow" x="-50%" y="-50%" width="200%" height="200%">
      <feDropShadow dx="2" dy="4" stdDeviation="3" flood-opacity="0.3"/>
    </filter>
  </defs>
  
  <!-- Background Circle -->
  <circle cx="64" cy="64" r="60" fill="url(#mainGradient)" filter="url(#dropshadow)"/>
  
  <!-- AI Brain/Circuit Pattern -->
  <g transform="translate(64, 64)">
    <!-- Central Core -->
    <circle cx="0" cy="0" r="8" fill="url(#aiGradient)" opacity="0.9"/>
    
    <!-- Neural Network Connections -->
    <g stroke="url(#aiGradient)" stroke-width="2" fill="none" opacity="0.7">
      <!-- Main branches -->
      <path d="M-8,0 L-20,-10 M-8,0 L-20,0 M-8,0 L-20,10"/>
      <path d="M8,0 L20,-10 M8,0 L20,0 M8,0 L20,10"/>
      <path d="M0,-8 L-10,-20 M0,-8 L0,-20 M0,-8 L10,-20"/>
      <path d="M0,8 L-10,20 M0,8 L0,20 M0,8 L10,20"/>
      
      <!-- Secondary connections -->
      <path d="M-14,-7 L-25,-15 M-14,7 L-25,15"/>
      <path d="M14,-7 L25,-15 M14,7 L25,15"/>
      <path d="M-7,-14 L-15,-25 M7,-14 L15,-25"/>
      <path d="M-7,14 L-15,25 M7,14 L15,25"/>
    </g>
    
    <!-- Neural Nodes -->
    <g fill="url(#aiGradient)">
      <circle cx="-20" cy="-10" r="3"/>
      <circle cx="-20" cy="0" r="3"/>
      <circle cx="-20" cy="10" r="3"/>
      <circle cx="20" cy="-10" r="3"/>
      <circle cx="20" cy="0" r="3"/>
      <circle cx="20" cy="10" r="3"/>
      <circle cx="-10" cy="-20" r="3"/>
      <circle cx="0" cy="-20" r="3"/>
      <circle cx="10" cy="-20" r="3"/>
      <circle cx="-10" cy="20" r="3"/>
      <circle cx="0" cy="20" r="3"/>
      <circle cx="10" cy="20" r="3"/>
    </g>
  </g>
  
  <!-- Test/Code Symbol -->
  <g transform="translate(64, 64)">
    <!-- Code brackets -->
    <g fill="white" opacity="0.9">
      <path d="M-35,-15 L-40,-15 L-40,-10 L-35,-10 M-35,10 L-40,10 L-40,15 L-35,15" stroke="white" stroke-width="2" fill="none"/>
      <path d="M35,-15 L40,-15 L40,-10 L35,-10 M35,10 L40,10 L40,15 L35,15" stroke="white" stroke-width="2" fill="none"/>
      
      <!-- Code lines -->
      <rect x="-30" y="-12" width="15" height="2" rx="1"/>
      <rect x="-30" y="-8" width="20" height="2" rx="1"/>
      <rect x="-30" y="-4" width="12" height="2" rx="1"/>
      
      <rect x="15" y="6" width="15" height="2" rx="1"/>
      <rect x="10" y="10" width="20" height="2" rx="1"/>
      <rect x="18" y="14" width="12" height="2" rx="1"/>
    </g>
  </g>
  
  <!-- Automation Gears -->
  <g transform="translate(32, 32)" opacity="0.6">
    <g fill="url(#accentGradient)">
      <!-- Small gear -->
      <circle cx="0" cy="0" r="6"/>
      <g transform="rotate(0)">
        <rect x="-1" y="-8" width="2" height="4" rx="1"/>
        <rect x="-1" y="4" width="2" height="4" rx="1"/>
        <rect x="-8" y="-1" width="4" height="2" rx="1"/>
        <rect x="4" y="-1" width="4" height="2" rx="1"/>
      </g>
      <circle cx="0" cy="0" r="3" fill="white"/>
    </g>
  </g>
  
  <g transform="translate(96, 96) rotate(45)" opacity="0.6">
    <g fill="url(#accentGradient)">
      <!-- Small gear -->
      <circle cx="0" cy="0" r="5"/>
      <g>
        <rect x="-1" y="-7" width="2" height="3" rx="1"/>
        <rect x="-1" y="4" width="2" height="3" rx="1"/>
        <rect x="-7" y="-1" width="3" height="2" rx="1"/>
        <rect x="4" y="-1" width="3" height="2" rx="1"/>
      </g>
      <circle cx="0" cy="0" r="2.5" fill="white"/>
    </g>
  </g>
  
  <!-- Lightning/Testing Symbol -->
  <g transform="translate(90, 40)" opacity="0.8">
    <path d="M-3,-6 L3,-2 L-1,0 L5,6 L-1,2 L1,0 Z" fill="url(#accentGradient)" filter="url(#dropshadow)"/>
  </g>
  
  <!-- Quality Badge -->
  <g transform="translate(38, 90)" opacity="0.8">
    <circle cx="0" cy="0" r="6" fill="url(#accentGradient)"/>
    <path d="M-3,0 L-1,2 L3,-2" stroke="white" stroke-width="2" fill="none" stroke-linecap="round" stroke-linejoin="round"/>
  </g>
  
  <!-- Subtle Data Flow Lines -->
  <g stroke="white" stroke-width="1" fill="none" opacity="0.3">
    <path d="M20,64 Q30,50 50,55 T80,45" stroke-dasharray="2,3"/>
    <path d="M108,64 Q98,78 78,73 T48,83" stroke-dasharray="2,3"/>
  </g>
  
  <!-- Version indicator dot -->
  <circle cx="110" cy="18" r="3" fill="url(#accentGradient)" opacity="0.7"/>
</svg>
